<svg width="257" height="69" viewBox="0 0 257 69" fill="none" xmlns="http://www.w3.org/2000/svg">
<g filter="url(#filter0_d_5_116)">
<mask id="path-1-inside-1_5_116" fill="white">
<path fill-rule="evenodd" clip-rule="evenodd" d="M45.8656 45.6534C52.7882 40.5574 57.6213 33.5485 59.1359 25.2868C60.6456 17.0514 58.6256 8.83788 53.9838 1.68098C47.0612 6.77696 42.2281 13.7859 40.7135 22.0476C39.2038 30.283 41.2238 38.4964 45.8656 45.6534Z"/>
</mask>
<path fill-rule="evenodd" clip-rule="evenodd" d="M45.8656 45.6534C52.7882 40.5574 57.6213 33.5485 59.1359 25.2868C60.6456 17.0514 58.6256 8.83788 53.9838 1.68098C47.0612 6.77696 42.2281 13.7859 40.7135 22.0476C39.2038 30.283 41.2238 38.4964 45.8656 45.6534Z" fill="#E0E0E0"/>
<path fill-rule="evenodd" clip-rule="evenodd" d="M45.8656 45.6534C52.7882 40.5574 57.6213 33.5485 59.1359 25.2868C60.6456 17.0514 58.6256 8.83788 53.9838 1.68098C47.0612 6.77696 42.2281 13.7859 40.7135 22.0476C39.2038 30.283 41.2238 38.4964 45.8656 45.6534Z" fill="white"/>
<path d="M59.1359 25.2868L56.1837 24.7531L56.1837 24.7531L59.1359 25.2868ZM45.8656 45.6534L43.3458 47.2882L45.0757 49.9554L47.6423 48.0661L45.8656 45.6534ZM53.9838 1.68098L56.5036 0.046128L54.7737 -2.62111L52.2071 -0.731758L53.9838 1.68098ZM40.7135 22.0476L37.7614 21.5139L40.7135 22.0476ZM56.1837 24.7531C54.8262 32.1584 50.4852 38.5321 44.089 43.2406L47.6423 48.0661C55.0912 42.5826 60.4165 34.9385 62.088 25.8204L56.1837 24.7531ZM51.4639 3.31583C55.7502 9.92448 57.5369 17.3718 56.1837 24.7531L62.088 25.8204C63.7543 16.7309 61.501 7.75129 56.5036 0.046128L51.4639 3.31583ZM43.6657 22.5812C45.0232 15.1759 49.3642 8.8022 55.7604 4.09371L52.2071 -0.731758C44.7582 4.75172 39.4329 12.3958 37.7614 21.5139L43.6657 22.5812ZM48.3855 44.0185C44.0992 37.4099 42.3125 29.9626 43.6657 22.5812L37.7614 21.5139C36.0951 30.6034 38.3484 39.583 43.3458 47.2882L48.3855 44.0185Z" fill="#FFBBBB" mask="url(#path-1-inside-1_5_116)"/>
<mask id="path-3-inside-2_5_116" fill="white">
<path fill-rule="evenodd" clip-rule="evenodd" d="M40.4174 45.7345C44.7709 38.6296 46.6203 30.4472 45.1107 22.2122C43.5966 13.9522 38.9367 6.91376 32.306 1.76624C27.9525 8.87108 26.1031 17.0535 27.6127 25.2885C29.1268 33.5485 33.7867 40.5869 40.4174 45.7345Z"/>
</mask>
<path fill-rule="evenodd" clip-rule="evenodd" d="M40.4174 45.7345C44.7709 38.6296 46.6203 30.4472 45.1107 22.2122C43.5966 13.9522 38.9367 6.91376 32.306 1.76624C27.9525 8.87108 26.1031 17.0535 27.6127 25.2885C29.1268 33.5485 33.7867 40.5869 40.4174 45.7345Z" fill="white"/>
<path d="M45.1107 22.2122L48.0629 21.6786L48.0629 21.6786L45.1107 22.2122ZM40.4174 45.7345L38.5794 48.1008L41.2295 50.1581L42.9781 47.3045L40.4174 45.7345ZM32.306 1.76624L34.1441 -0.600084L31.4939 -2.65744L29.7453 0.196193L32.306 1.76624ZM27.6127 25.2885L24.6605 25.8221L27.6127 25.2885ZM42.1586 22.7458C43.5204 30.1748 41.8697 37.6153 37.8567 44.1644L42.9781 47.3045C47.6721 39.6439 49.7202 30.7197 48.0629 21.6786L42.1586 22.7458ZM30.468 4.13256C36.5836 8.88018 40.7926 15.294 42.1586 22.7458L48.0629 21.6786C46.4006 12.6105 41.2899 4.94734 34.1441 -0.600084L30.468 4.13256ZM30.5648 24.7549C29.203 17.3259 30.8537 9.88538 34.8667 3.33628L29.7453 0.196193C25.0513 7.85678 23.0032 16.7811 24.6605 25.8221L30.5648 24.7549ZM42.2554 43.3681C36.1398 38.6205 31.9308 32.2067 30.5648 24.7549L24.6605 25.8221C26.3228 34.8902 31.4335 42.5534 38.5794 48.1008L42.2554 43.3681Z" fill="#FFBBBB" mask="url(#path-3-inside-2_5_116)"/>
<mask id="path-5-inside-3_5_116" fill="white">
<path fill-rule="evenodd" clip-rule="evenodd" d="M42.8911 52.62C46.9374 47.2723 49.3352 40.6245 49.3352 33.4206C49.3352 26.2167 46.9374 19.5689 42.8911 14.2211C38.8447 19.5689 36.447 26.2167 36.447 33.4206C36.447 40.6245 38.8447 47.2723 42.8911 52.62Z"/>
</mask>
<path fill-rule="evenodd" clip-rule="evenodd" d="M42.8911 52.62C46.9374 47.2723 49.3352 40.6245 49.3352 33.4206C49.3352 26.2167 46.9374 19.5689 42.8911 14.2211C38.8447 19.5689 36.447 26.2167 36.447 33.4206C36.447 40.6245 38.8447 47.2723 42.8911 52.62Z" fill="white"/>
<path d="M42.8911 52.62L40.4987 54.4302L42.8911 57.592L45.2834 54.4302L42.8911 52.62ZM42.8911 14.2211L45.2834 12.411L42.8911 9.24915L40.4987 12.411L42.8911 14.2211ZM46.3352 33.4206C46.3352 39.947 44.1655 45.9638 40.4987 50.8099L45.2834 54.4302C49.7093 48.5808 52.3352 41.3019 52.3352 33.4206H46.3352ZM40.4987 16.0313C44.1655 20.8774 46.3352 26.8941 46.3352 33.4206H52.3352C52.3352 25.5392 49.7093 18.2603 45.2834 12.411L40.4987 16.0313ZM39.447 33.4206C39.447 26.8941 41.6167 20.8774 45.2834 16.0313L40.4987 12.411C36.0728 18.2603 33.447 25.5392 33.447 33.4206H39.447ZM45.2834 50.8099C41.6167 45.9638 39.447 39.947 39.447 33.4206H33.447C33.447 41.3019 36.0728 48.5808 40.4987 54.4302L45.2834 50.8099Z" fill="#FFBBBB" mask="url(#path-5-inside-3_5_116)"/>
<mask id="path-7-inside-4_5_116" fill="white">
<path fill-rule="evenodd" clip-rule="evenodd" d="M47.2036 50.4717C53.9186 50.1148 60.5917 47.6727 66.1672 43.0544C71.7417 38.4369 75.3573 32.3579 76.9149 25.8641C70.2 26.2211 63.5269 28.6632 57.9514 33.2815C52.3769 37.8989 48.7613 43.978 47.2036 50.4717Z"/>
</mask>
<path fill-rule="evenodd" clip-rule="evenodd" d="M47.2036 50.4717C53.9186 50.1148 60.5917 47.6727 66.1672 43.0544C71.7417 38.4369 75.3573 32.3579 76.9149 25.8641C70.2 26.2211 63.5269 28.6632 57.9514 33.2815C52.3769 37.8989 48.7613 43.978 47.2036 50.4717Z" fill="#C7E3C0"/>
<path d="M66.1672 43.0544L68.0969 45.3514L68.0969 45.3514L66.1672 43.0544ZM47.2036 50.4717L44.2753 49.7754L43.3408 53.6712L47.3682 53.4572L47.2036 50.4717ZM76.9149 25.8641L79.8432 26.5604L80.7777 22.6646L76.7503 22.8787L76.9149 25.8641ZM57.9514 33.2815L56.0217 30.9844L57.9514 33.2815ZM64.2375 40.7574C59.1753 44.9504 53.1263 47.1627 47.039 47.4862L47.3682 53.4572C54.7109 53.0669 62.008 50.3949 68.0969 45.3514L64.2375 40.7574ZM73.9866 25.1679C72.5746 31.0543 69.2987 36.5651 64.2375 40.7574L68.0969 45.3514C74.1847 40.3088 78.1399 33.6614 79.8432 26.5604L73.9866 25.1679ZM59.8811 35.5785C64.9432 31.3854 70.9922 29.1732 77.0795 28.8496L76.7503 22.8787C69.4077 23.269 62.1105 25.9409 56.0217 30.9844L59.8811 35.5785ZM50.132 51.168C51.5439 45.2815 54.8199 39.7707 59.8811 35.5785L56.0217 30.9844C49.9339 36.0271 45.9786 42.6745 44.2753 49.7754L50.132 51.168Z" fill="#FFBBBB" mask="url(#path-7-inside-4_5_116)"/>
<mask id="path-9-inside-5_5_116" fill="white">
<path fill-rule="evenodd" clip-rule="evenodd" d="M37.8299 50.9654C36.2942 44.4458 32.6918 38.3514 27.1175 33.7337C21.5423 29.1153 14.8565 26.6882 8.11988 26.3568C9.65555 32.8763 13.258 38.9708 18.8323 43.5884C24.4075 48.2069 31.0933 50.634 37.8299 50.9654Z"/>
</mask>
<path fill-rule="evenodd" clip-rule="evenodd" d="M37.8299 50.9654C36.2942 44.4458 32.6918 38.3514 27.1175 33.7337C21.5423 29.1153 14.8565 26.6882 8.11988 26.3568C9.65555 32.8763 13.258 38.9708 18.8323 43.5884C24.4075 48.2069 31.0933 50.634 37.8299 50.9654Z" fill="#C7E3C0"/>
<path d="M27.1175 33.7337L25.1877 36.0307L27.1175 33.7337ZM37.8299 50.9654L37.6772 53.9514L41.6719 54.148L40.761 50.2809L37.8299 50.9654ZM8.11988 26.3568L8.27253 23.3707L4.27787 23.1742L5.18875 27.0413L8.11988 26.3568ZM18.8323 43.5884L20.7621 41.2915L18.8323 43.5884ZM25.1877 36.0307C30.2438 40.219 33.5067 45.7399 34.8987 51.6498L40.761 50.2809C39.0818 43.1518 35.1397 36.4837 29.0473 31.4368L25.1877 36.0307ZM7.96724 29.3428C14.0742 29.6433 20.1307 31.8415 25.1877 36.0307L29.0473 31.4368C22.9538 26.389 15.6387 23.7331 8.27253 23.3707L7.96724 29.3428ZM20.7621 41.2915C15.706 37.1031 12.4431 31.5823 11.051 25.6723L5.18875 27.0413C6.86801 34.1704 10.81 40.8384 16.9025 45.8853L20.7621 41.2915ZM37.9825 47.9793C31.8756 47.6789 25.819 45.4806 20.7621 41.2915L16.9025 45.8853C22.996 50.9331 30.311 53.5891 37.6772 53.9514L37.9825 47.9793Z" fill="#FFBBBB" mask="url(#path-9-inside-5_5_116)"/>
<mask id="path-11-inside-6_5_116" fill="white">
<path fill-rule="evenodd" clip-rule="evenodd" d="M42.7929 52.129C49.9887 49.0588 56.2896 43.7372 60.5128 36.4806C64.7306 29.2335 66.2275 21.171 65.3173 13.463C58.1215 16.5332 51.8206 21.8549 47.5973 29.1114C43.3796 36.3585 41.8827 44.421 42.7929 52.129Z"/>
</mask>
<path fill-rule="evenodd" clip-rule="evenodd" d="M42.7929 52.129C49.9887 49.0588 56.2896 43.7372 60.5128 36.4806C64.7306 29.2335 66.2275 21.171 65.3173 13.463C58.1215 16.5332 51.8206 21.8549 47.5973 29.1114C43.3796 36.3585 41.8827 44.421 42.7929 52.129Z" fill="white"/>
<path d="M60.5128 36.4806L63.1149 37.9737L63.1149 37.9737L60.5128 36.4806ZM42.7929 52.129L39.8055 52.487L40.2741 56.4557L43.9714 54.8782L42.7929 52.129ZM65.3173 13.463L68.3047 13.105L67.836 9.13632L64.1387 10.7138L65.3173 13.463ZM47.5973 29.1114L50.1993 30.6046L47.5973 29.1114ZM57.9108 34.9875C54.0249 41.6645 48.2331 46.5558 41.6143 49.3798L43.9714 54.8782C51.7443 51.5618 58.5543 45.8099 63.1149 37.9737L57.9108 34.9875ZM62.3299 13.821C63.1669 20.9093 61.7917 28.3192 57.9108 34.9875L63.1149 37.9737C67.6695 30.1477 69.2881 21.4328 68.3047 13.105L62.3299 13.821ZM50.1993 30.6046C54.0853 23.9276 59.8771 19.0362 66.4958 16.2122L64.1387 10.7138C56.3659 14.0302 49.5558 19.7822 44.9953 27.6183L50.1993 30.6046ZM45.7803 51.771C44.9433 44.6827 46.3185 37.2728 50.1993 30.6046L44.9953 27.6183C40.4406 35.4443 38.8221 44.1592 39.8055 52.487L45.7803 51.771Z" fill="#FFBBBB" mask="url(#path-11-inside-6_5_116)"/>
<mask id="path-13-inside-7_5_116" fill="white">
<path fill-rule="evenodd" clip-rule="evenodd" d="M33.531 54.298C41.3803 54.8622 49.4661 52.9878 56.5698 48.4151C63.6672 43.8464 68.6859 37.2914 71.3686 29.9567C63.5193 29.3925 55.4335 31.2669 48.3298 35.8397C41.2324 40.4083 36.2137 46.9634 33.531 54.298Z"/>
</mask>
<path fill-rule="evenodd" clip-rule="evenodd" d="M33.531 54.298C41.3803 54.8622 49.4661 52.9878 56.5698 48.4151C63.6672 43.8464 68.6859 37.2914 71.3686 29.9567C63.5193 29.3925 55.4335 31.2669 48.3298 35.8397C41.2324 40.4083 36.2137 46.9634 33.531 54.298Z" fill="white"/>
<path d="M56.5698 48.4151L54.9298 45.903L54.9298 45.903L56.5698 48.4151ZM33.531 54.298L30.703 53.2693L29.3402 56.9951L33.3218 57.2813L33.531 54.298ZM71.3686 29.9567L74.1966 30.9854L75.5594 27.2596L71.5778 26.9734L71.3686 29.9567ZM48.3298 35.8397L49.9698 38.3517L48.3298 35.8397ZM54.9298 45.903C48.3929 50.1109 40.96 51.8336 33.7401 51.3146L33.3218 57.2813C41.8005 57.8908 50.5393 55.8646 58.2098 50.9271L54.9298 45.903ZM68.5406 28.9281C66.0734 35.6735 61.4609 41.6989 54.9298 45.903L58.2098 50.9271C65.8735 45.9939 71.2984 38.9092 74.1966 30.9854L68.5406 28.9281ZM49.9698 38.3517C56.5067 34.1438 63.9395 32.4211 71.1595 32.9401L71.5778 26.9734C63.0991 26.3639 54.3602 28.3901 46.6897 33.3276L49.9698 38.3517ZM36.359 55.3266C38.8262 48.5812 43.4387 42.5558 49.9698 38.3517L46.6897 33.3276C39.0261 38.2608 33.6012 45.3455 30.703 53.2693L36.359 55.3266Z" fill="#FFBBBB" mask="url(#path-13-inside-7_5_116)"/>
<mask id="path-15-inside-8_5_116" fill="white">
<path fill-rule="evenodd" clip-rule="evenodd" d="M43.0288 52.129C43.939 44.421 42.4421 36.3585 38.2244 29.1114C34.0011 21.8549 27.7002 16.5332 20.5044 13.463C19.5942 21.171 21.0911 29.2335 25.3088 36.4806C29.5321 43.7372 35.833 49.0588 43.0288 52.129Z"/>
</mask>
<path fill-rule="evenodd" clip-rule="evenodd" d="M43.0288 52.129C43.939 44.421 42.4421 36.3585 38.2244 29.1114C34.0011 21.8549 27.7002 16.5332 20.5044 13.463C19.5942 21.171 21.0911 29.2335 25.3088 36.4806C29.5321 43.7372 35.833 49.0588 43.0288 52.129Z" fill="white"/>
<path d="M38.2244 29.1114L40.8264 27.6183L40.8264 27.6183L38.2244 29.1114ZM43.0288 52.129L41.8502 54.8782L45.5476 56.4557L46.0162 52.487L43.0288 52.129ZM20.5044 13.463L21.683 10.7138L17.9857 9.13632L17.517 13.105L20.5044 13.463ZM25.3088 36.4806L22.7068 37.9737L25.3088 36.4806ZM35.6224 30.6046C39.5032 37.2728 40.8784 44.6827 40.0414 51.771L46.0162 52.487C46.9996 44.1592 45.381 35.4443 40.8264 27.6183L35.6224 30.6046ZM19.3259 16.2122C25.9446 19.0362 31.7364 23.9276 35.6224 30.6046L40.8264 27.6183C36.2658 19.7822 29.4558 14.0302 21.683 10.7138L19.3259 16.2122ZM27.9109 34.9875C24.03 28.3192 22.6548 20.9093 23.4918 13.821L17.517 13.105C16.5336 21.4328 18.1522 30.1478 22.7068 37.9737L27.9109 34.9875ZM44.2074 49.3798C37.5886 46.5558 31.7968 41.6645 27.9109 34.9875L22.7068 37.9737C27.2674 45.8099 34.0774 51.5618 41.8502 54.8782L44.2074 49.3798Z" fill="#FFBBBB" mask="url(#path-15-inside-8_5_116)"/>
<mask id="path-17-inside-9_5_116" fill="white">
<path fill-rule="evenodd" clip-rule="evenodd" d="M52.2644 54.7493C49.5816 47.4147 44.5629 40.8597 37.4654 36.2911C30.3617 31.7185 22.2758 29.8441 14.4265 30.4084C17.1093 37.743 22.1281 44.2981 29.2255 48.8666C36.3292 53.4393 44.4151 55.3137 52.2644 54.7493Z"/>
</mask>
<path fill-rule="evenodd" clip-rule="evenodd" d="M52.2644 54.7493C49.5816 47.4147 44.5629 40.8597 37.4654 36.2911C30.3617 31.7185 22.2758 29.8441 14.4265 30.4084C17.1093 37.743 22.1281 44.2981 29.2255 48.8666C36.3292 53.4393 44.4151 55.3137 52.2644 54.7493Z" fill="white"/>
<path d="M37.4654 36.2911L35.8255 38.8032L35.8255 38.8032L37.4654 36.2911ZM52.2644 54.7493L52.4736 57.7327L56.4552 57.4465L55.0924 53.7207L52.2644 54.7493ZM14.4265 30.4084L14.2174 27.4251L10.2358 27.7113L11.5985 31.4371L14.4265 30.4084ZM29.2255 48.8666L27.5855 51.3787L29.2255 48.8666ZM35.8255 38.8032C42.3566 43.0072 46.9691 49.0326 49.4364 55.778L55.0924 53.7207C52.1941 45.7969 46.7692 38.7122 39.1054 33.7791L35.8255 38.8032ZM14.6357 33.3918C21.8556 32.8727 29.2885 34.5954 35.8255 38.8032L39.1054 33.7791C31.4349 28.8416 22.696 26.8155 14.2174 27.4251L14.6357 33.3918ZM30.8655 46.3546C24.3343 42.1505 19.7218 36.1252 17.2545 29.3797L11.5985 31.4371C14.4968 39.3609 19.9218 46.4456 27.5855 51.3787L30.8655 46.3546ZM52.0552 51.766C44.8353 52.285 37.4025 50.5624 30.8655 46.3546L27.5855 51.3787C35.256 56.3162 43.9949 58.3423 52.4736 57.7327L52.0552 51.766Z" fill="#FFBBBB" mask="url(#path-17-inside-9_5_116)"/>
<mask id="path-19-inside-10_5_116" fill="white">
<path fill-rule="evenodd" clip-rule="evenodd" d="M44.3252 52.7441C40.7833 48.9541 36.0174 46.2369 30.4964 45.2619C24.9612 44.2844 19.5246 45.2096 14.8661 47.5661C18.408 51.3561 23.1738 54.0734 28.6949 55.0484C34.2301 56.0259 39.6667 55.1007 44.3252 52.7441Z"/>
</mask>
<path fill-rule="evenodd" clip-rule="evenodd" d="M44.3252 52.7441C40.7833 48.9541 36.0174 46.2369 30.4964 45.2619C24.9612 44.2844 19.5246 45.2096 14.8661 47.5661C18.408 51.3561 23.1738 54.0734 28.6949 55.0484C34.2301 56.0259 39.6667 55.1007 44.3252 52.7441Z" fill="#C7E3C0"/>
<path d="M30.4964 45.2619L31.0253 42.3089L30.4964 45.2619ZM44.3252 52.7441L45.676 55.4189L49.2474 53.6122L46.521 50.6949L44.3252 52.7441ZM14.8661 47.5661L13.5153 44.8914L9.94385 46.698L12.6702 49.6154L14.8661 47.5661ZM28.6949 55.0484L29.2238 52.0954L28.6949 55.0484ZM29.9674 48.2149C34.8291 49.0734 39.016 51.462 42.1294 54.7934L46.521 50.6949C42.5505 46.4463 37.2058 43.4003 31.0253 42.3089L29.9674 48.2149ZM16.2168 50.2409C20.3146 48.168 25.0932 47.3541 29.9674 48.2149L31.0253 42.3089C24.8291 41.2147 18.7346 42.2511 13.5153 44.8914L16.2168 50.2409ZM29.2238 52.0954C24.3621 51.2369 20.1752 48.8483 17.0619 45.5169L12.6702 49.6154C16.6407 53.864 21.9855 56.91 28.166 58.0014L29.2238 52.0954ZM42.9744 50.0694C38.8767 52.1423 34.098 52.9562 29.2238 52.0954L28.166 58.0014C34.3621 59.0956 40.4567 58.0591 45.676 55.4189L42.9744 50.0694Z" fill="#FFBBBB" mask="url(#path-19-inside-10_5_116)"/>
<mask id="path-21-inside-11_5_116" fill="white">
<path fill-rule="evenodd" clip-rule="evenodd" d="M43.0678 52.7441C47.7263 55.1007 53.1629 56.0259 58.6981 55.0484C64.2192 54.0734 68.985 51.3561 72.5269 47.5661C67.8684 45.2096 62.4318 44.2844 56.8966 45.2619C51.3755 46.2368 46.6097 48.9541 43.0678 52.7441Z"/>
</mask>
<path fill-rule="evenodd" clip-rule="evenodd" d="M43.0678 52.7441C47.7263 55.1007 53.1629 56.0259 58.6981 55.0484C64.2192 54.0734 68.985 51.3561 72.5269 47.5661C67.8684 45.2096 62.4318 44.2844 56.8966 45.2619C51.3755 46.2368 46.6097 48.9541 43.0678 52.7441Z" fill="#C7E3C0"/>
<path d="M58.6981 55.0484L59.227 58.0014L58.6981 55.0484ZM43.0678 52.7441L40.872 50.6948L38.1456 53.6122L41.717 55.4188L43.0678 52.7441ZM72.5269 47.5661L74.7227 49.6154L77.4491 46.6981L73.8777 44.8914L72.5269 47.5661ZM56.8966 45.2619L56.3677 42.3089L56.8966 45.2619ZM58.1692 52.0954C53.2949 52.9561 48.5163 52.1422 44.4186 50.0693L41.717 55.4188C46.9363 58.0591 53.0308 59.0956 59.227 58.0014L58.1692 52.0954ZM70.3311 45.5169C67.2178 48.8483 63.0308 51.2368 58.1692 52.0954L59.227 58.0014C65.4075 56.9099 70.7523 53.864 74.7227 49.6154L70.3311 45.5169ZM57.4255 48.2149C62.2998 47.3541 67.0784 48.168 71.1761 50.2409L73.8777 44.8914C68.6584 42.2511 62.5639 41.2147 56.3677 42.3089L57.4255 48.2149ZM45.2636 54.7933C48.3769 51.4619 52.5639 49.0734 57.4255 48.2149L56.3677 42.3089C50.1872 43.4003 44.8424 46.4462 40.872 50.6948L45.2636 54.7933Z" fill="#FFBBBB" mask="url(#path-21-inside-11_5_116)"/>
</g>
<g filter="url(#filter1_d_5_116)">
<path d="M95.01 39.29H83.73V17.09H86.97V36.2H95.01V39.29ZM116.111 26.72V38.33C113.971 39.23 111.631 39.68 109.091 39.68C105.651 39.68 102.911 38.62 100.871 36.5C98.8713 34.42 97.8713 31.65 97.8713 28.19C97.8713 24.73 98.9013 21.96 100.961 19.88C103.021 17.76 105.741 16.7 109.121 16.7C111.721 16.7 113.771 17.06 115.271 17.78L114.881 20.96C113.421 20.16 111.501 19.76 109.121 19.76C106.661 19.76 104.711 20.55 103.271 22.13C101.871 23.65 101.171 25.67 101.171 28.19C101.171 30.73 101.851 32.76 103.211 34.28C104.611 35.84 106.571 36.62 109.091 36.62C110.711 36.62 111.941 36.46 112.781 36.14V29.78H108.161V26.72H116.111ZM124.725 39.29H121.455V15.41H124.725V39.29ZM135.855 25.49C134.495 25.49 133.415 26.03 132.615 27.11C131.855 28.17 131.475 29.54 131.475 31.22C131.475 32.9 131.855 34.27 132.615 35.33C133.415 36.41 134.495 36.95 135.855 36.95C137.215 36.95 138.285 36.41 139.065 35.33C139.845 34.29 140.235 32.92 140.235 31.22C140.235 29.54 139.845 28.17 139.065 27.11C138.285 26.03 137.215 25.49 135.855 25.49ZM135.855 22.67C138.335 22.67 140.265 23.56 141.645 25.34C142.885 26.92 143.505 28.88 143.505 31.22C143.505 33.56 142.885 35.52 141.645 37.1C140.265 38.88 138.335 39.77 135.855 39.77C133.355 39.77 131.415 38.88 130.035 37.1C128.815 35.56 128.205 33.6 128.205 31.22C128.205 28.84 128.815 26.88 130.035 25.34C131.415 23.56 133.355 22.67 135.855 22.67ZM170.158 23.06L164.728 39.41H161.488L157.768 27.56L153.928 39.41H150.658L145.348 23.06H148.768L152.398 34.82L156.208 23.06H159.478L163.108 34.82L166.888 23.06H170.158ZM192.138 20.48C191.138 19.98 189.798 19.73 188.118 19.73C185.518 19.73 184.218 20.69 184.218 22.61C184.218 23.53 185.028 24.5 186.648 25.52C187.988 26.38 189.038 27.06 189.798 27.56C190.558 28.06 191.018 28.39 191.178 28.55C192.798 29.97 193.608 31.61 193.608 33.47C193.608 35.55 192.808 37.18 191.208 38.36C189.848 39.36 188.218 39.86 186.318 39.86C184.418 39.86 182.678 39.51 181.098 38.81L181.488 35.48C182.988 36.32 184.638 36.74 186.438 36.74C189.098 36.74 190.428 35.57 190.428 33.23C190.428 32.31 189.618 31.31 187.998 30.23C186.538 29.25 185.428 28.5 184.668 27.98C183.928 27.46 183.528 27.18 183.468 27.14C181.868 25.76 181.068 24.25 181.068 22.61C181.068 20.75 181.788 19.26 183.228 18.14C184.528 17.14 186.168 16.64 188.148 16.64C189.788 16.64 191.298 16.9 192.678 17.42L192.138 20.48ZM206.566 39.44V37.85C205.586 39.13 204.176 39.77 202.336 39.77C200.336 39.77 198.856 39.21 197.896 38.09C197.216 37.27 196.876 36.27 196.876 35.09C196.876 31.01 199.876 28.97 205.876 28.97H206.326V28.43C206.326 26.47 205.416 25.49 203.596 25.49C201.956 25.49 200.336 25.92 198.736 26.78V23.84C200.256 23.06 201.936 22.67 203.776 22.67C205.696 22.67 207.096 23.12 207.976 24.02C208.916 25 209.386 26.52 209.386 28.58V35.57C209.386 37.41 209.446 38.7 209.566 39.44H206.566ZM206.326 31.76H205.696C204.136 31.76 202.936 31.9 202.096 32.18C200.756 32.62 200.086 33.49 200.086 34.79C200.086 36.23 200.916 36.95 202.576 36.95C205.076 36.95 206.326 35.43 206.326 32.39V31.76ZM217.273 39.29H214.003V15.41H217.273V39.29ZM228.403 25.49C227.043 25.49 225.963 26.03 225.163 27.11C224.403 28.17 224.023 29.54 224.023 31.22C224.023 32.9 224.403 34.27 225.163 35.33C225.963 36.41 227.043 36.95 228.403 36.95C229.763 36.95 230.833 36.41 231.613 35.33C232.393 34.29 232.783 32.92 232.783 31.22C232.783 29.54 232.393 28.17 231.613 27.11C230.833 26.03 229.763 25.49 228.403 25.49ZM228.403 22.67C230.883 22.67 232.813 23.56 234.193 25.34C235.433 26.92 236.053 28.88 236.053 31.22C236.053 33.56 235.433 35.52 234.193 37.1C232.813 38.88 230.883 39.77 228.403 39.77C225.903 39.77 223.963 38.88 222.583 37.1C221.363 35.56 220.753 33.6 220.753 31.22C220.753 28.84 221.363 26.88 222.583 25.34C223.963 23.56 225.903 22.67 228.403 22.67ZM252.987 39.41H249.867V29.36C249.867 26.78 248.927 25.49 247.047 25.49C245.767 25.49 244.797 26 244.137 27.02C243.597 27.9 243.327 29.03 243.327 30.41V39.41H240.207V27.2C240.207 26.42 240.187 25.69 240.147 25.01C240.127 24.31 240.097 23.65 240.057 23.03H243.057V24.68C244.037 23.34 245.487 22.67 247.407 22.67C251.127 22.67 252.987 24.74 252.987 28.88V39.41Z" fill="white"/>
</g>
<defs>
<filter id="filter0_d_5_116" x="0" y="0" width="85" height="69" filterUnits="userSpaceOnUse" color-interpolation-filters="sRGB">
<feFlood flood-opacity="0" result="BackgroundImageFix"/>
<feColorMatrix in="SourceAlpha" type="matrix" values="0 0 0 0 0 0 0 0 0 0 0 0 0 0 0 0 0 0 127 0" result="hardAlpha"/>
<feOffset dy="4"/>
<feGaussianBlur stdDeviation="2"/>
<feComposite in2="hardAlpha" operator="out"/>
<feColorMatrix type="matrix" values="0 0 0 0 0 0 0 0 0 0 0 0 0 0 0 0 0 0 0.25 0"/>
<feBlend mode="normal" in2="BackgroundImageFix" result="effect1_dropShadow_5_116"/>
<feBlend mode="normal" in="SourceGraphic" in2="effect1_dropShadow_5_116" result="shape"/>
</filter>
<filter id="filter1_d_5_116" x="79.73" y="15.41" width="177.257" height="32.45" filterUnits="userSpaceOnUse" color-interpolation-filters="sRGB">
<feFlood flood-opacity="0" result="BackgroundImageFix"/>
<feColorMatrix in="SourceAlpha" type="matrix" values="0 0 0 0 0 0 0 0 0 0 0 0 0 0 0 0 0 0 127 0" result="hardAlpha"/>
<feOffset dy="4"/>
<feGaussianBlur stdDeviation="2"/>
<feComposite in2="hardAlpha" operator="out"/>
<feColorMatrix type="matrix" values="0 0 0 0 0 0 0 0 0 0 0 0 0 0 0 0 0 0 0.25 0"/>
<feBlend mode="normal" in2="BackgroundImageFix" result="effect1_dropShadow_5_116"/>
<feBlend mode="normal" in="SourceGraphic" in2="effect1_dropShadow_5_116" result="shape"/>
</filter>
</defs>
</svg>
